<?xml version="1.0" encoding="UTF-8"?>
<svg xmlns="http://www.w3.org/2000/svg" xmlns:xlink="http://www.w3.org/1999/xlink" width="250px" height="80px" viewBox="0 0 250 80" version="1.1">
<g id="surface1">
<path style=" stroke:none;fill-rule:nonzero;fill:rgb(100%,100%,100%);fill-opacity:1;" d="M 240.398438 56.101562 L 240.199219 55.300781 L 240.398438 55 L 240.699219 55.699219 Z M 238.199219 54.800781 L 238.898438 53.699219 L 237.898438 53 L 237.199219 54.300781 L 236.898438 54.101562 L 237.800781 52.398438 L 240.601562 54.199219 L 239.699219 55.800781 L 239.398438 55.601562 L 240.101562 54.398438 L 239.199219 53.800781 L 238.5 54.898438 Z M 238.199219 54.800781 "/>
<path style=" stroke:none;fill-rule:nonzero;fill:rgb(100%,100%,100%);fill-opacity:1;" d="M 234.800781 57 C 234.800781 56.800781 235 56.5 235.300781 56.199219 C 235.898438 55.5 236.800781 55.300781 237.601562 55.898438 C 238.398438 56.601562 238.5 57.601562 237.898438 58.300781 C 237.601562 58.699219 237.398438 58.800781 237.199219 58.898438 L 237 58.601562 C 237.199219 58.5 237.398438 58.398438 237.601562 58.101562 C 238.101562 57.398438 238 56.699219 237.300781 56.199219 C 236.601562 55.601562 235.898438 55.699219 235.398438 56.398438 C 235.199219 56.601562 235.101562 56.898438 235 57.101562 Z M 234.800781 57 "/>
<path style=" stroke:none;fill-rule:nonzero;fill:rgb(100%,100%,100%);fill-opacity:1;" d="M 233 58.699219 C 233.699219 58 234.601562 58.101562 235.300781 58.898438 C 236 59.601562 236 60.699219 235.398438 61.199219 C 234.699219 61.898438 233.800781 61.800781 233.101562 61 C 232.300781 60.199219 232.398438 59.199219 233 58.699219 Z M 233.199219 59 C 232.699219 59.5 232.800781 60.199219 233.398438 60.800781 C 233.898438 61.300781 234.601562 61.5 235.199219 61.101562 C 235.800781 60.601562 235.5 59.898438 235 59.300781 C 234.5 58.699219 233.800781 58.398438 233.199219 59 Z M 233.199219 59 "/>
<path style=" stroke:none;fill-rule:nonzero;fill:rgb(100%,100%,100%);fill-opacity:1;" d="M 233 63.199219 L 232.601562 63.5 L 230.800781 61.199219 L 229.601562 62 L 229.398438 61.699219 L 230.898438 60.601562 Z M 233 63.199219 "/>
<path style=" stroke:none;fill-rule:nonzero;fill:rgb(100%,100%,100%);fill-opacity:1;" d="M 227.898438 64.398438 L 229 63.699219 L 228.398438 62.699219 L 227.101562 63.398438 L 226.898438 63.101562 L 228.601562 62.199219 L 230.300781 65.101562 L 228.699219 66 L 228.5 65.699219 L 229.699219 65 L 229.101562 64.101562 L 228 64.800781 Z M 227.898438 64.398438 "/>
<path style=" stroke:none;fill-rule:nonzero;fill:rgb(100%,100%,100%);fill-opacity:1;" d="M 225.5 67.398438 C 225.199219 67.5 224.898438 67.699219 224.699219 67.800781 C 224.101562 68 223.699219 68 223.300781 67.800781 C 222.898438 67.601562 222.601562 67.300781 222.5 66.800781 C 222.300781 66.199219 222.300781 65.800781 222.601562 65.398438 C 222.800781 65 223.300781 64.699219 223.898438 64.5 C 224.199219 64.398438 224.5 64.300781 224.601562 64.300781 Z M 224.101562 64.800781 C 224 64.800781 223.800781 64.898438 223.601562 64.898438 C 222.699219 65.199219 222.398438 65.800781 222.699219 66.699219 C 223 67.398438 223.5 67.800781 224.398438 67.5 C 224.601562 67.398438 224.800781 67.300781 224.898438 67.300781 Z M 224.101562 64.800781 "/>
<path style=" stroke:none;fill-rule:nonzero;fill:rgb(100%,100%,100%);fill-opacity:1;" d="M 220.800781 68.800781 L 220.398438 66.800781 C 220.300781 66.101562 219.898438 65.800781 219.5 65.898438 C 219.101562 66 218.800781 66.398438 218.800781 67.101562 L 219.199219 69.101562 L 218.699219 69.199219 L 218.300781 67.199219 C 218.101562 66.199219 218.601562 65.699219 219.300781 65.5 C 220 65.398438 220.601562 65.699219 220.699219 66.699219 L 221.101562 68.699219 Z M 220.800781 68.800781 "/>
<path style=" stroke:none;fill-rule:nonzero;fill:rgb(100%,100%,100%);fill-opacity:1;" d="M 212.300781 67.300781 C 212.300781 67.800781 212.300781 68.300781 212.300781 68.800781 C 212.5 68.398438 212.601562 68 212.800781 67.601562 L 213.5 66 L 213.898438 66 L 214.398438 67.699219 C 214.5 68.199219 214.699219 68.601562 214.699219 69 C 214.699219 68.5 214.800781 68 214.898438 67.5 L 215.101562 66.101562 L 215.5 66.101562 L 215 69.398438 L 214.398438 69.398438 L 213.898438 67.699219 C 213.800781 67.199219 213.699219 66.898438 213.601562 66.601562 C 213.5 67 213.300781 67.300781 213.101562 67.699219 L 212.398438 69.300781 L 211.800781 69.300781 L 211.800781 66 L 212.300781 66 Z M 212.300781 67.300781 "/>
<path style=" stroke:none;fill-rule:nonzero;fill:rgb(100%,100%,100%);fill-opacity:1;" d="M 209.300781 65.199219 C 210.101562 65.398438 210.601562 66.199219 210.398438 67.300781 C 210.101562 68.300781 209.398438 68.898438 208.398438 68.699219 C 207.5 68.5 207.101562 67.699219 207.300781 66.601562 C 207.800781 65.5 208.5 65.101562 209.300781 65.199219 Z M 209.300781 65.5 C 208.601562 65.300781 208.101562 65.898438 207.898438 66.601562 C 207.699219 67.300781 207.898438 68 208.601562 68.199219 C 209.300781 68.398438 209.800781 67.699219 210 67.101562 C 210.199219 66.5 209.898438 65.699219 209.300781 65.5 Z M 209.300781 65.5 "/>
<path style=" stroke:none;fill-rule:nonzero;fill:rgb(100%,100%,100%);fill-opacity:1;" d="M 206.699219 64.699219 L 205.5 67.800781 L 205 67.601562 L 204.601562 65.601562 C 204.5 65.101562 204.398438 64.800781 204.398438 64.398438 C 204.300781 64.898438 204.101562 65.199219 203.898438 65.699219 L 203.300781 67 L 202.898438 66.800781 L 204.101562 63.699219 L 204.5 63.898438 L 204.898438 65.898438 C 205 66.398438 205.101562 66.699219 205.101562 67.199219 C 205.199219 66.800781 205.398438 66.5 205.601562 65.898438 L 206.199219 64.601562 Z M 206.699219 64.699219 "/>
<path style=" stroke:none;fill-rule:nonzero;fill:rgb(100%,100%,100%);fill-opacity:1;" d="M 201.5 65.898438 C 201.199219 65.800781 200.898438 65.601562 200.699219 65.5 C 200.101562 65.199219 199.898438 64.800781 199.800781 64.5 C 199.699219 64.199219 199.699219 63.699219 200 63.199219 C 200.300781 62.699219 200.699219 62.5 201.101562 62.300781 C 201.601562 62.199219 202 62.300781 202.699219 62.699219 C 203 62.898438 203.199219 63 203.398438 63.199219 Z M 202.601562 63.199219 C 202.5 63.101562 202.398438 63 202.199219 62.898438 C 201.398438 62.398438 200.699219 62.601562 200.199219 63.5 C 199.800781 64.199219 199.898438 64.898438 200.800781 65.300781 C 201 65.398438 201.199219 65.5 201.300781 65.5 Z M 202.601562 63.199219 "/>
<path style=" stroke:none;fill-rule:nonzero;fill:rgb(100%,100%,100%);fill-opacity:1;" d="M 197.5 61.199219 L 198.5 62 L 199.199219 61.101562 L 198.101562 60.199219 L 198.300781 59.898438 L 199.800781 61.101562 L 197.699219 63.699219 L 196.199219 62.601562 L 196.398438 62.300781 L 197.5 63.101562 L 198.199219 62.300781 L 197.199219 61.5 Z M 197.5 61.199219 "/>
<path style=" stroke:none;fill-rule:nonzero;fill:rgb(100%,100%,100%);fill-opacity:1;" d="M 195.199219 58.5 C 195.398438 58.699219 195.398438 59.101562 195.199219 59.199219 C 195 59.398438 194.601562 59.398438 194.5 59.199219 C 194.300781 59 194.300781 58.601562 194.5 58.5 C 194.601562 58.199219 195 58.300781 195.199219 58.5 Z M 195.199219 58.5 "/>
<path style=" stroke:none;fill-rule:nonzero;fill:rgb(100%,100%,100%);fill-opacity:1;" d="M 192.601562 53.199219 C 192.800781 53.300781 193 53.5 193.300781 53.898438 C 193.898438 54.699219 193.699219 55.699219 192.699219 56.199219 C 191.800781 56.800781 190.800781 56.601562 190.398438 55.699219 C 190.199219 55.300781 190.101562 55 190.101562 55 L 190.5 54.898438 C 190.5 55.101562 190.601562 55.300781 190.800781 55.601562 C 191.300781 56.300781 191.898438 56.398438 192.699219 56 C 193.398438 55.5 193.5 54.898438 193.199219 54.101562 C 193 53.898438 192.800781 53.601562 192.699219 53.5 Z M 192.601562 53.199219 "/>
<path style=" stroke:none;fill-rule:nonzero;fill:rgb(100%,100%,100%);fill-opacity:1;" d="M 191.601562 51 C 192 51.800781 191.601562 52.699219 190.699219 53.199219 C 189.800781 53.699219 188.800781 53.398438 188.5 52.5 C 188.199219 51.601562 188.5 50.800781 189.398438 50.300781 C 190.398438 49.898438 191.300781 50.300781 191.601562 51 Z M 191.300781 51.101562 C 191 50.398438 190.300781 50.398438 189.5 50.699219 C 188.800781 51 188.398438 51.601562 188.800781 52.300781 C 189.101562 53 189.898438 53 190.601562 52.699219 C 191.199219 52.398438 191.601562 51.800781 191.300781 51.101562 Z M 191.300781 51.101562 "/>
<path style=" stroke:none;fill-rule:nonzero;fill:rgb(100%,100%,100%);fill-opacity:1;" d="M 187.398438 49.5 L 187.300781 49 L 190.101562 48.101562 L 189.601562 46.699219 L 190 46.601562 L 190.601562 48.398438 Z M 187.398438 49.5 "/>
<path style=" stroke:none;fill-rule:nonzero;fill:rgb(100%,100%,100%);fill-opacity:1;" d="M 187.898438 44.300781 L 188.199219 45.601562 L 189.398438 45.398438 L 189.101562 44 L 189.5 43.898438 L 189.898438 45.800781 L 186.601562 46.5 L 186.199219 44.699219 L 186.601562 44.601562 L 186.898438 46 L 187.898438 45.800781 L 187.601562 44.5 Z M 187.898438 44.300781 "/>
<path style=" stroke:none;fill-rule:nonzero;fill:rgb(100%,100%,100%);fill-opacity:1;" d="M 189 40.101562 C 189.101562 40.300781 189.199219 40.699219 189.300781 41.101562 C 189.300781 41.601562 189.199219 42 188.898438 42.398438 C 188.601562 42.699219 188.199219 42.898438 187.699219 43 C 186.699219 43.101562 185.898438 42.398438 185.800781 41.199219 C 185.800781 40.800781 185.898438 40.5 185.898438 40.398438 L 186.300781 40.5 C 186.199219 40.699219 186.199219 40.898438 186.199219 41.199219 C 186.199219 42 186.800781 42.5 187.601562 42.5 C 188.398438 42.5 188.898438 41.898438 188.898438 41.101562 C 188.898438 40.800781 188.800781 40.601562 188.800781 40.5 L 187.800781 40.601562 L 187.800781 41.300781 L 187.398438 41.300781 L 187.300781 40.199219 Z M 189 40.101562 "/>
<path style=" stroke:none;fill-rule:nonzero;fill:rgb(100%,100%,100%);fill-opacity:1;" d="M 185.800781 38.300781 L 189.101562 38.5 L 189.101562 39 L 185.800781 38.800781 Z M 185.800781 38.300781 "/>
<path style=" stroke:none;fill-rule:nonzero;fill:rgb(100%,100%,100%);fill-opacity:1;" d="M 189.601562 35.800781 C 189.398438 36.699219 188.699219 37.199219 187.601562 37 C 186.601562 36.800781 185.898438 36.101562 186.101562 35.101562 C 186.300781 34.199219 187 33.699219 188.101562 33.898438 C 189.199219 34.101562 189.699219 35 189.601562 35.800781 Z M 189.199219 35.699219 C 189.300781 35 188.699219 34.5 188 34.398438 C 187.300781 34.300781 186.601562 34.5 186.5 35.199219 C 186.398438 35.898438 187 36.398438 187.699219 36.5 C 188.398438 36.601562 189.101562 36.398438 189.199219 35.699219 Z M 189.199219 35.699219 "/>
<path style=" stroke:none;fill-rule:nonzero;fill:rgb(100%,100%,100%);fill-opacity:1;" d="M 187.5 30.300781 C 187.601562 30 187.699219 29.699219 187.800781 29.398438 C 188.101562 28.800781 188.398438 28.5 188.699219 28.300781 C 189.101562 28.101562 189.5 28.101562 190 28.300781 C 190.5 28.5 190.800781 28.898438 191 29.199219 C 191.199219 29.601562 191.101562 30.101562 190.898438 30.800781 C 190.800781 31.101562 190.699219 31.398438 190.5 31.5 Z M 190.300781 31.101562 C 190.398438 31 190.398438 30.800781 190.5 30.699219 C 190.898438 29.898438 190.601562 29.199219 189.699219 28.800781 C 189 28.5 188.300781 28.699219 188 29.5 C 187.898438 29.699219 187.898438 29.898438 187.800781 30 Z M 190.300781 31.101562 "/>
<path style=" stroke:none;fill-rule:nonzero;fill:rgb(100%,100%,100%);fill-opacity:1;" d="M 191.601562 25.699219 L 190.898438 26.800781 L 191.898438 27.398438 L 192.601562 26.101562 L 192.898438 26.300781 L 192 28 L 189.101562 26.300781 L 190 24.699219 L 190.300781 24.898438 L 189.601562 26.101562 L 190.5 26.699219 L 191.199219 25.601562 Z M 191.601562 25.699219 "/>
<path style=" stroke:none;fill-rule:nonzero;fill:rgb(100%,100%,100%);fill-opacity:1;" d="M 191 23.398438 L 191.300781 23 L 193.601562 24.800781 L 194.398438 23.699219 L 194.699219 23.898438 L 193.601562 25.398438 Z M 191 23.398438 "/>
<path style=" stroke:none;fill-rule:nonzero;fill:rgb(100%,100%,100%);fill-opacity:1;" d="M 197.699219 18.800781 C 197.300781 18.398438 197 18.101562 196.699219 17.800781 C 196.898438 18.199219 197.101562 18.5 197.300781 19 L 198 20.601562 L 197.699219 20.800781 L 196.199219 20 C 195.699219 19.699219 195.398438 19.5 195.101562 19.300781 C 195.398438 19.601562 195.800781 20 196 20.398438 L 196.898438 21.5 L 196.601562 21.800781 L 194.5 19.199219 L 194.898438 18.800781 L 196.398438 19.601562 C 196.800781 19.800781 197.101562 20.101562 197.398438 20.300781 C 197.199219 20 197.101562 19.601562 196.898438 19.199219 L 196.199219 17.601562 L 196.601562 17.199219 L 198.898438 19.5 L 198.601562 19.800781 Z M 197.699219 18.800781 "/>
<path style=" stroke:none;fill-rule:nonzero;fill:rgb(100%,100%,100%);fill-opacity:1;" d="M 198.800781 15.800781 L 199.898438 17.5 C 200.300781 18.199219 200.699219 18.199219 201.101562 18 C 201.601562 17.699219 201.699219 17.300781 201.199219 16.699219 L 200.101562 15 L 200.5 14.699219 L 201.5 16.398438 C 202.101562 17.199219 201.800781 17.898438 201.199219 18.398438 C 200.601562 18.800781 200 18.699219 199.398438 17.800781 L 198.398438 16.101562 Z M 198.800781 15.800781 "/>
<path style=" stroke:none;fill-rule:nonzero;fill:rgb(100%,100%,100%);fill-opacity:1;" d="M 203.398438 16.898438 L 202 13.898438 L 202.5 13.699219 L 204.199219 14.800781 C 204.601562 15.101562 204.898438 15.300781 205.199219 15.5 C 205 15.101562 204.800781 14.800781 204.5 14.300781 L 203.898438 13 L 204.300781 12.800781 L 205.699219 15.800781 L 205.300781 15.898438 L 203.601562 14.800781 C 203.199219 14.5 202.898438 14.300781 202.601562 14.101562 C 202.800781 14.5 203 14.800781 203.199219 15.398438 L 203.800781 16.699219 Z M 203.398438 16.898438 "/>
<path style=" stroke:none;fill-rule:nonzero;fill:rgb(100%,100%,100%);fill-opacity:1;" d="M 206.199219 12.199219 C 206.5 12.101562 206.800781 12 207 11.898438 C 207.601562 11.699219 208.101562 11.699219 208.398438 11.898438 C 208.800781 12.101562 209.101562 12.5 209.101562 12.898438 C 209.300781 13.5 209.199219 13.898438 209 14.300781 C 208.800781 14.699219 208.300781 15 207.699219 15.101562 C 207.398438 15.199219 207.101562 15.300781 207 15.300781 Z M 207.398438 14.898438 C 207.5 14.898438 207.699219 14.800781 207.898438 14.800781 C 208.800781 14.5 209.101562 14 208.898438 13 C 208.699219 12.300781 208.199219 11.898438 207.199219 12.101562 C 207 12.199219 206.800781 12.199219 206.699219 12.300781 Z M 207.398438 14.898438 "/>
<path style=" stroke:none;fill-rule:nonzero;fill:rgb(100%,100%,100%);fill-opacity:1;" d="M 212.199219 14.300781 C 211.300781 14.398438 210.601562 13.699219 210.5 12.800781 C 210.398438 11.800781 211 10.898438 211.898438 10.800781 C 212.800781 10.699219 213.5 11.398438 213.601562 12.300781 C 213.601562 13.601562 213 14.199219 212.199219 14.300781 Z M 212.101562 13.898438 C 212.800781 13.800781 213.101562 13.199219 213 12.398438 C 212.898438 11.699219 212.5 11.101562 211.800781 11.199219 C 211.101562 11.300781 210.800781 12 210.898438 12.699219 C 210.898438 13.5 211.398438 14 212.101562 13.898438 Z M 212.101562 13.898438 "/>
<path style=" stroke:none;fill-rule:nonzero;fill:rgb(100%,100%,100%);fill-opacity:1;" d="M 216.898438 13.101562 C 216.601562 13.101562 216.398438 12.800781 216.398438 12.5 C 216.398438 12.199219 216.699219 12 217 12 C 217.300781 12 217.5 12.300781 217.5 12.601562 C 217.398438 12.800781 217.199219 13.101562 216.898438 13.101562 Z M 216.898438 13.101562 "/>
<path style=" stroke:none;fill-rule:nonzero;fill:rgb(100%,100%,100%);fill-opacity:1;" d="M 220.699219 14.699219 L 220.699219 11.300781 L 221.199219 11.398438 L 221.101562 13.199219 C 221.101562 13.699219 221.101562 14 221 14.398438 C 221.199219 14.101562 221.398438 13.699219 221.601562 13.398438 L 222.398438 11.898438 L 222.898438 12 L 222.898438 13.800781 C 222.898438 14.199219 222.898438 14.601562 222.800781 15 C 223 14.601562 223.199219 14.300781 223.398438 14 L 224.199219 12.5 L 224.699219 12.601562 L 222.898438 15.5 L 222.398438 15.398438 L 222.398438 13.699219 C 222.398438 13.199219 222.398438 13 222.5 12.601562 C 222.300781 12.898438 222.199219 13.300781 221.898438 13.601562 L 221 15.199219 Z M 220.699219 14.699219 "/>
<path style=" stroke:none;fill-rule:nonzero;fill:rgb(100%,100%,100%);fill-opacity:1;" d="M 225.898438 16.5 C 225.101562 16.101562 224.800781 15.199219 225.199219 14.300781 C 225.699219 13.398438 226.5 13 227.398438 13.398438 C 228.199219 13.800781 228.5 14.699219 228.101562 15.601562 C 227.5 16.601562 226.699219 16.898438 225.898438 16.5 Z M 226.101562 16.300781 C 226.800781 16.601562 227.300781 16.199219 227.699219 15.5 C 228 14.800781 228 14.101562 227.300781 13.800781 C 226.601562 13.5 226 14 225.699219 14.601562 C 225.398438 15.101562 225.5 16 226.101562 16.300781 Z M 226.101562 16.300781 "/>
<path style=" stroke:none;fill-rule:nonzero;fill:rgb(100%,100%,100%);fill-opacity:1;" d="M 230.101562 14.898438 C 230.300781 15 230.601562 15.101562 230.800781 15.300781 C 231.199219 15.601562 231.398438 15.800781 231.5 16 C 231.601562 16.199219 231.5 16.5 231.398438 16.699219 C 231.101562 17.101562 230.699219 17.199219 230.398438 17.101562 C 230.601562 17.300781 230.601562 17.601562 230.398438 17.898438 C 230.199219 18.398438 230.101562 18.601562 230.101562 18.800781 L 229.699219 18.5 C 229.699219 18.398438 229.800781 18.101562 230 17.699219 C 230.199219 17.199219 230.101562 17 229.800781 16.800781 L 229.398438 16.601562 L 228.601562 17.800781 L 228.199219 17.5 Z M 229.699219 16.5 L 230.101562 16.800781 C 230.5 17.101562 230.800781 17 231.101562 16.699219 C 231.398438 16.300781 231.199219 16 230.800781 15.800781 C 230.601562 15.699219 230.5 15.601562 230.398438 15.601562 Z M 229.699219 16.5 "/>
<path style=" stroke:none;fill-rule:nonzero;fill:rgb(100%,100%,100%);fill-opacity:1;" d="M 233.101562 17.101562 L 233.5 17.398438 L 231.5 19.699219 L 232.601562 20.601562 L 232.300781 20.898438 L 230.800781 19.699219 Z M 233.101562 17.101562 "/>
<path style=" stroke:none;fill-rule:nonzero;fill:rgb(100%,100%,100%);fill-opacity:1;" d="M 235.699219 19.300781 C 235.898438 19.5 236.199219 19.699219 236.398438 20 C 236.898438 20.5 237.101562 20.898438 237.101562 21.300781 C 237.101562 21.699219 236.898438 22.101562 236.5 22.5 C 236.101562 22.898438 235.699219 23.101562 235.199219 23.101562 C 234.699219 23.101562 234.300781 22.800781 233.800781 22.398438 C 233.601562 22.199219 233.398438 21.898438 233.300781 21.699219 Z M 233.800781 21.601562 C 233.898438 21.699219 234 21.800781 234.101562 22 C 234.800781 22.699219 235.5 22.699219 236.199219 22.101562 C 236.800781 21.5 236.898438 20.898438 236.199219 20.199219 C 236 20 235.898438 19.898438 235.800781 19.800781 Z M 233.800781 21.601562 "/>
<path style=" stroke:none;fill-rule:nonzero;fill:rgb(100%,100%,100%);fill-opacity:1;" d="M 237.199219 25.5 C 237.199219 25.699219 237.300781 26.101562 237.398438 26.199219 C 237.601562 26.601562 238 26.699219 238.199219 26.5 C 238.5 26.300781 238.601562 26.101562 238.5 25.601562 C 238.398438 25 238.5 24.601562 238.898438 24.300781 C 239.398438 24 239.898438 24.199219 240.300781 24.800781 C 240.5 25.101562 240.601562 25.398438 240.601562 25.5 L 240.199219 25.601562 C 240.199219 25.5 240.199219 25.199219 240 24.898438 C 239.699219 24.5 239.398438 24.5 239.300781 24.601562 C 239 24.800781 239 25.101562 239.101562 25.5 C 239.199219 26.199219 239.101562 26.5 238.699219 26.699219 C 238.199219 27 237.699219 26.898438 237.199219 26.199219 C 237 25.898438 236.898438 25.5 236.898438 25.398438 Z M 237.199219 25.5 "/>
<path style=" stroke:none;fill-rule:nonzero;fill:rgb(100%,100%,100%);fill-opacity:1;" d="M 239.300781 30.601562 C 239.199219 30.5 238.898438 30.199219 238.800781 29.898438 C 238.398438 29.101562 238.699219 28.101562 239.601562 27.699219 C 240.5 27.300781 241.601562 27.601562 241.898438 28.601562 C 242.101562 29 242.101562 29.300781 242.101562 29.398438 L 241.699219 29.398438 C 241.699219 29.199219 241.699219 28.898438 241.5 28.699219 C 241.199219 28 240.5 27.699219 239.699219 28 C 239 28.398438 238.699219 29 239 29.800781 C 239.101562 30.101562 239.300781 30.300781 239.5 30.398438 Z M 239.300781 30.601562 "/>
<path style=" stroke:none;fill-rule:nonzero;fill:rgb(100%,100%,100%);fill-opacity:1;" d="M 243 31.199219 L 241.601562 31.601562 L 242.101562 33.199219 L 243.5 32.800781 L 243.601562 33.300781 L 240.398438 34.199219 L 240.300781 33.699219 L 241.800781 33.199219 L 241.300781 31.601562 L 239.800781 32.101562 L 239.699219 31.601562 L 242.898438 30.699219 Z M 243 31.199219 "/>
<path style=" stroke:none;fill-rule:nonzero;fill:rgb(100%,100%,100%);fill-opacity:1;" d="M 240.699219 36.800781 C 240.601562 35.898438 241.199219 35.199219 242.199219 35 C 243.199219 34.898438 244.101562 35.5 244.199219 36.300781 C 244.300781 37.199219 243.699219 37.898438 242.699219 38.101562 C 241.5 38.199219 240.898438 37.5 240.699219 36.800781 Z M 241.101562 36.800781 C 241.199219 37.5 241.800781 37.800781 242.601562 37.699219 C 243.300781 37.601562 243.898438 37.101562 243.800781 36.5 C 243.699219 35.800781 243 35.5 242.300781 35.601562 C 241.601562 35.601562 241 36 241.101562 36.800781 Z M 241.101562 36.800781 "/>
<path style=" stroke:none;fill-rule:nonzero;fill:rgb(100%,100%,100%);fill-opacity:1;" d="M 241 40.800781 C 241 39.898438 241.699219 39.300781 242.800781 39.300781 C 243.898438 39.300781 244.601562 40 244.601562 40.898438 C 244.601562 41.800781 243.898438 42.398438 242.800781 42.398438 C 241.5 42.300781 240.898438 41.601562 241 40.800781 Z M 241.199219 40.800781 C 241.199219 41.5 241.800781 41.898438 242.601562 41.898438 C 243.300781 41.898438 244 41.601562 244 40.898438 C 244 40.199219 243.300781 39.800781 242.601562 39.800781 C 241.898438 39.800781 241.300781 40.101562 241.199219 40.800781 Z M 241.199219 40.800781 "/>
<path style=" stroke:none;fill-rule:nonzero;fill:rgb(100%,100%,100%);fill-opacity:1;" d="M 244.101562 44 L 244 44.5 L 241.101562 44 L 240.898438 45.398438 L 240.5 45.300781 L 240.800781 43.398438 Z M 244.101562 44 "/>
<path style=" stroke:none;fill-rule:nonzero;fill:rgb(100%,100%,100%);fill-opacity:1;" d="M 240.601562 48.898438 C 240.699219 48.601562 241 48.398438 241.300781 48.5 C 241.601562 48.601562 241.800781 48.898438 241.699219 49.199219 C 241.601562 49.5 241.300781 49.699219 241 49.601562 C 240.699219 49.5 240.5 49.199219 240.601562 48.898438 Z M 240.601562 48.898438 "/>
<path style=" stroke:none;fill-rule:nonzero;fill:rgb(100%,100%,100%);fill-opacity:1;" d="M 238.199219 40 C 238.199219 52.699219 227.800781 63.101562 215.101562 63.101562 C 204.199219 63.101562 195.101562 55.601562 192.601562 45.5 C 197.101562 45.398438 201.398438 44.398438 205.300781 42.699219 L 205.300781 33.699219 C 205.300781 33 205 32.5 204.601562 32.101562 C 204.101562 31.699219 203.199219 31.601562 202 31.601562 L 202 30.800781 C 203.699219 30.699219 205.199219 30.601562 206.601562 30.5 C 208 30.300781 209.101562 30.101562 210.199219 29.800781 L 210.199219 43 C 210.199219 43.699219 210.199219 44.601562 210.199219 45.300781 C 210.199219 46 210.199219 47 210.199219 47.699219 C 210.199219 48.5 210.101562 49.300781 210.101562 50 C 210 50.699219 210 51.300781 209.898438 51.898438 C 211.300781 52.699219 212.800781 53.398438 214.5 54 C 216.199219 54.601562 217.699219 54.800781 219.199219 54.800781 C 220.398438 54.800781 221.601562 54.601562 222.800781 54.199219 C 224 53.800781 225 53.300781 225.898438 52.5 C 226.800781 51.800781 227.601562 50.898438 228.101562 49.898438 C 228.699219 48.898438 228.898438 47.699219 228.898438 46.300781 C 228.898438 45.101562 228.699219 44 228.199219 43 C 227.699219 42 227.199219 41 226.398438 40.398438 C 225.699219 39.699219 224.699219 39.101562 223.800781 38.601562 C 222.800781 38.101562 221.601562 37.898438 220.5 37.898438 C 219.601562 37.898438 218.601562 38.101562 217.800781 38.398438 C 216.898438 38.699219 215.898438 39.101562 215.300781 39.601562 L 215.300781 35.800781 C 219.398438 31.398438 222.300781 25.898438 223.5 19.699219 C 218.300781 17.5 212.398438 17.300781 206.699219 19.300781 C 200.300781 21.601562 195.699219 26.5 193.601562 32.398438 C 195.800781 26.101562 200.601562 20.800781 207.199219 18.300781 C 212.800781 16.101562 218.601562 16.300781 223.699219 18.398438 C 232 21.699219 238.199219 30.101562 238.199219 40 Z M 215.601562 51.800781 C 216.300781 52.898438 217.398438 53.5 218.800781 53.5 C 220.300781 53.5 221.300781 52.898438 222 51.800781 C 222.699219 50.699219 222.898438 49.101562 222.898438 46.601562 C 222.898438 44.300781 222.601562 42.601562 222 41.398438 C 221.300781 40.300781 220.199219 39.699219 218.800781 39.699219 C 217.300781 39.699219 216.300781 40.300781 215.601562 41.398438 C 214.898438 42.5 214.699219 44.101562 214.699219 46.601562 C 214.699219 49 215 50.699219 215.601562 51.800781 Z M 209.601562 27.199219 C 210.300781 26.5 210.5 25.800781 210.5 24.898438 C 210.5 24 210.199219 23.101562 209.601562 22.601562 C 208.898438 21.898438 208.199219 21.699219 207.300781 21.699219 C 206.398438 21.699219 205.601562 22 205 22.601562 C 204.300781 23.300781 204.101562 24 204.101562 24.898438 C 204.101562 25.800781 204.398438 26.699219 205 27.199219 C 205.699219 27.898438 206.398438 28.101562 207.300781 28.101562 C 208.199219 28.101562 209 27.800781 209.601562 27.199219 Z M 209.601562 27.199219 "/>
<path style=" stroke:none;fill-rule:nonzero;fill:rgb(100%,100%,100%);fill-opacity:1;" d="M 238.699219 18.898438 C 243.699219 24.5 246.699219 31.800781 246.699219 40 C 246.699219 57.398438 232.601562 71.699219 215 71.699219 C 212.898438 71.699219 211.101562 71.5 209.101562 71.101562 C 211.5 71.800781 214.300781 72.101562 217 72.101562 C 217.101562 72.101562 217.101562 72.101562 217.199219 72.101562 C 233.800781 71 247.199219 57 247.199219 40 C 247.199219 34.800781 245.898438 29.699219 243.699219 25.300781 C 242.199219 22.898438 240.601562 20.800781 238.699219 18.898438 Z M 238.699219 18.898438 "/>
<path style=" stroke:none;fill-rule:nonzero;fill:rgb(100%,100%,100%);fill-opacity:1;" d="M 183.398438 40 C 183.398438 24.300781 194.800781 11.300781 209.699219 8.800781 C 212 8.199219 214.5 8 217 8 C 217.601562 8 218.199219 8 218.800781 8 C 217.5 7.800781 216.398438 7.800781 215.101562 7.800781 C 197.300781 7.800781 182.898438 22.199219 182.898438 39.898438 C 182.898438 47.300781 185.300781 54.101562 189.601562 59.601562 C 187.898438 57.199219 186.601562 54.398438 185.699219 51.5 C 184.199219 47.898438 183.398438 44.101562 183.398438 40 Z M 183.398438 40 "/>
<path style=" stroke:none;fill-rule:nonzero;fill:rgb(100%,100%,100%);fill-opacity:1;" d="M 248.300781 17.800781 C 248.300781 18.898438 247.5 19.800781 246.300781 19.800781 C 245.101562 19.800781 244.300781 19 244.300781 17.800781 C 244.300781 16.699219 245.101562 15.800781 246.300781 15.800781 C 247.5 15.898438 248.300781 16.699219 248.300781 17.800781 Z M 244.800781 17.800781 C 244.800781 18.699219 245.5 19.5 246.398438 19.5 C 247.300781 19.5 248 18.800781 248 17.800781 C 248 16.800781 247.300781 16.101562 246.300781 16.101562 C 245.5 16.199219 244.800781 16.800781 244.800781 17.800781 Z M 246 18.800781 L 245.699219 18.800781 L 245.699219 16.601562 L 246.5 16.601562 C 247 16.601562 247.199219 16.800781 247.199219 17.300781 C 247.199219 17.699219 246.898438 17.898438 246.601562 18 L 247.300781 19 L 247 19 L 246.300781 18 L 246 18 Z M 246.300781 17.699219 C 246.699219 17.699219 247 17.699219 247 17.300781 C 247 17 246.699219 16.898438 246.398438 16.898438 L 246 16.898438 L 246 17.601562 C 246 17.699219 246.300781 17.699219 246.300781 17.699219 Z M 246.300781 17.699219 "/>
<path style=" stroke:none;fill-rule:nonzero;fill:rgb(100%,100%,100%);fill-opacity:1;" d="M 51.699219 61.699219 L 153.898438 61.699219 L 153.898438 62.101562 L 51.699219 62.101562 Z M 51.699219 61.699219 "/>
<path style=" stroke:none;fill-rule:nonzero;fill:rgb(100%,100%,100%);fill-opacity:1;" d="M 67.300781 24.300781 L 66.601562 24.300781 C 66.101562 21.199219 64.300781 20.101562 61.5 20.101562 C 56.5 20.101562 54.800781 24.398438 54.800781 28.800781 C 54.800781 32 55.898438 37.398438 61.398438 37.398438 C 64.898438 37.398438 66.300781 35.398438 66.898438 32.601562 L 67.601562 32.601562 L 67.300781 37 C 66 37.699219 63.601562 38.300781 61.5 38.300781 C 58.5 38.300781 56 37.699219 54.300781 36.101562 C 52.699219 34.5 51.800781 32 51.800781 28.898438 C 51.800781 25.898438 52.699219 23.699219 54.199219 22 C 55.800781 20.199219 58.398438 19.300781 61.699219 19.300781 C 64.101562 19.300781 66.101562 19.800781 67.300781 20.300781 Z M 67.300781 24.300781 "/>
<path style=" stroke:none;fill-rule:nonzero;fill:rgb(100%,100%,100%);fill-opacity:1;" d="M 83.5 19.601562 L 83.5 23.898438 L 82.800781 23.898438 C 82.398438 21.199219 81.898438 20.5 78.800781 20.5 L 76.199219 20.5 C 75.398438 20.5 75.300781 20.601562 75.300781 21.398438 L 75.300781 27.800781 L 79 27.800781 C 81.199219 27.800781 81.300781 27.101562 81.601562 25.601562 L 82.398438 25.601562 L 82.398438 31.199219 L 81.601562 31.199219 C 81.300781 29.5 81.199219 28.898438 79 28.898438 L 75.300781 28.898438 L 75.300781 34.699219 C 75.300781 36 75.398438 36.5 76 36.699219 C 76.601562 36.898438 77.5 37 78.699219 37 C 82.101562 37 83.199219 36.5 83.898438 33.300781 L 84.601562 33.300781 L 84.300781 37.898438 L 70.101562 37.898438 L 70.101562 37.199219 C 72.398438 37 72.398438 37 72.398438 35.5 L 72.398438 22.101562 C 72.398438 20.601562 72.300781 20.601562 70.101562 20.398438 L 70.101562 19.699219 C 70.101562 19.601562 83.5 19.601562 83.5 19.601562 Z M 83.5 19.601562 "/>
<path style=" stroke:none;fill-rule:nonzero;fill:rgb(100%,100%,100%);fill-opacity:1;" d="M 105.5 19.601562 L 105.5 20.300781 C 103.199219 20.5 103.199219 20.5 103.199219 22 L 103.199219 31.101562 C 103.199219 32.699219 102.898438 34.101562 102.5 35 C 101.300781 37.601562 98.5 38.300781 95.800781 38.300781 C 93.101562 38.300781 90.5 37.601562 89.199219 35 C 88.699219 34.101562 88.5 32.699219 88.5 31.199219 L 88.5 22 C 88.5 20.5 88.398438 20.5 86.199219 20.300781 L 86.199219 19.601562 L 93.601562 19.601562 L 93.601562 20.300781 C 91.300781 20.5 91.199219 20.5 91.199219 22 L 91.199219 30.5 C 91.199219 33 91.601562 34.601562 92.398438 35.699219 C 93.199219 36.699219 94.398438 37.300781 95.898438 37.300781 C 97.398438 37.300781 98.601562 36.699219 99.5 35.699219 C 100.199219 34.699219 100.699219 33.101562 100.699219 30.5 L 100.699219 22 C 100.699219 20.5 100.601562 20.5 98.398438 20.300781 L 98.398438 19.601562 Z M 105.5 19.601562 "/>
<path style=" stroke:none;fill-rule:nonzero;fill:rgb(100%,100%,100%);fill-opacity:1;" d="M 61.101562 53.601562 L 60.398438 55.699219 C 59.601562 56.101562 58.699219 56.300781 57.800781 56.300781 C 54.601562 56.300781 53.800781 54.199219 53.800781 52.601562 C 53.800781 51.800781 54 50.5 54.601562 49.398438 C 55.300781 48.199219 56.800781 47.101562 59.101562 47.101562 C 60 47.101562 61.199219 47.300781 61.898438 47.800781 L 61.398438 49.699219 L 61 49.699219 C 61.101562 48.300781 60.5 47.5 58.898438 47.5 C 57.5 47.5 56.601562 48.199219 55.898438 49.300781 C 55.199219 50.300781 55 51.699219 55 52.898438 C 55 54.898438 56 55.800781 57.5 55.800781 C 59.101562 55.800781 59.699219 55 60.398438 53.601562 Z M 61.101562 53.601562 "/>
<path style=" stroke:none;fill-rule:nonzero;fill:rgb(100%,100%,100%);fill-opacity:1;" d="M 68 51.800781 C 68 52.5 67.800781 53.601562 67.199219 54.5 C 66.601562 55.398438 65.699219 56.101562 64.300781 56.101562 C 62.699219 56.101562 62 55.199219 62 53.800781 C 62 52.699219 62.699219 49.601562 65.699219 49.601562 C 66.699219 49.601562 68 50.101562 68 51.800781 Z M 63.101562 54.300781 C 63.101562 55.199219 63.5 55.601562 64.199219 55.601562 C 66 55.601562 66.601562 52.101562 66.601562 51.300781 C 66.601562 50.601562 66.300781 50 65.601562 50 C 64 50 63.101562 53 63.101562 54.300781 Z M 63.101562 54.300781 "/>
<path style=" stroke:none;fill-rule:nonzero;fill:rgb(100%,100%,100%);fill-opacity:1;" d="M 72.300781 46.5 L 70.300781 54.699219 C 70.199219 55.101562 70.199219 55.398438 70.398438 55.398438 C 70.699219 55.398438 71.199219 54.699219 71.601562 54.101562 L 71.898438 54.300781 C 71.5 55.199219 70.699219 56.199219 69.800781 56.199219 C 69.101562 56.199219 69 55.601562 69.101562 55 L 70.898438 48 C 71 47.5 71 47.398438 70.601562 47.300781 L 70 47.199219 L 70.101562 46.898438 Z M 72.300781 46.5 "/>
<path style=" stroke:none;fill-rule:nonzero;fill:rgb(100%,100%,100%);fill-opacity:1;" d="M 77.5 54.300781 C 76.699219 55.699219 75.5 56.101562 74.601562 56.101562 C 73.898438 56.101562 72.699219 55.800781 72.699219 54 C 72.699219 53 73.101562 51.800781 73.699219 51 C 74.398438 50.199219 75.398438 49.5 76.5 49.5 C 77.5 49.5 78.101562 50.101562 78.101562 50.800781 C 78.101562 51.199219 78 51.5 77.5 52 C 76.898438 52.5 76 53 73.800781 53.5 C 73.800781 53.601562 73.800781 53.601562 73.800781 53.699219 C 73.800781 54.699219 74.101562 55.5 74.898438 55.5 C 75.800781 55.5 76.601562 54.699219 77 54 Z M 76.898438 50.699219 C 76.898438 50.199219 76.601562 50 76.199219 50 C 75.199219 50 74.199219 51.5 74 53.101562 C 76.101562 52.601562 76.898438 51.699219 76.898438 50.699219 Z M 76.898438 50.699219 "/>
<path style=" stroke:none;fill-rule:nonzero;fill:rgb(100%,100%,100%);fill-opacity:1;" d="M 85.101562 49.398438 L 84.800781 50.300781 L 83.800781 50.5 C 84 50.699219 84.101562 51.101562 84.101562 51.300781 C 84.101562 52.601562 83.199219 53.5 81.398438 53.5 C 81.199219 53.5 80.898438 53.5 80.699219 53.5 C 80.398438 53.601562 80.101562 53.800781 80.101562 54 C 80.101562 54.398438 80.601562 54.601562 81.601562 54.699219 C 83.101562 55.101562 83.800781 55.699219 83.800781 56.699219 C 83.800781 58.101562 82.398438 58.898438 80.699219 58.898438 C 79.101562 58.898438 77.898438 58.199219 77.898438 57 C 77.898438 56 79 55.398438 79.898438 55.199219 C 79.300781 55 79 54.800781 79 54.398438 C 79 53.898438 79.699219 53.699219 80.101562 53.5 C 79.699219 53.398438 79.101562 52.800781 79.101562 51.898438 C 79.101562 51 79.800781 49.601562 81.800781 49.601562 C 82.5 49.601562 83 49.800781 83.398438 50 Z M 82.601562 57.199219 C 82.601562 56.199219 81.101562 55.800781 80.300781 55.699219 C 79.699219 55.800781 79 56.199219 79 57.101562 C 79 58 79.800781 58.601562 80.898438 58.601562 C 81.898438 58.601562 82.601562 58.101562 82.601562 57.199219 Z M 80.199219 52.101562 C 80.199219 52.800781 80.601562 53.199219 81.199219 53.199219 C 82.101562 53.199219 82.800781 52.300781 82.800781 51 C 82.800781 50.199219 82.101562 50 81.800781 50 C 80.601562 50 80.199219 51.300781 80.199219 52.101562 Z M 80.199219 52.101562 "/>
<path style=" stroke:none;fill-rule:nonzero;fill:rgb(100%,100%,100%);fill-opacity:1;" d="M 87.800781 49.601562 L 86.5 54.800781 C 86.398438 55.199219 86.398438 55.5 86.601562 55.5 C 87 55.5 87.5 54.601562 87.699219 54.199219 L 88 54.398438 C 87.5 55.300781 86.898438 56.300781 85.898438 56.300781 C 85.199219 56.300781 85.101562 55.699219 85.199219 55.101562 L 86.199219 51.101562 C 86.300781 50.601562 86.300781 50.5 85.898438 50.5 L 85.300781 50.398438 L 85.398438 50.101562 Z M 88.398438 47.5 C 88.398438 48 88.101562 48.300781 87.601562 48.300781 C 87.199219 48.300781 86.898438 48 86.898438 47.601562 C 86.898438 47.199219 87.199219 46.800781 87.699219 46.800781 C 88 46.898438 88.398438 47.101562 88.398438 47.5 Z M 88.398438 47.5 "/>
<path style=" stroke:none;fill-rule:nonzero;fill:rgb(100%,100%,100%);fill-opacity:1;" d="M 95 51.800781 C 95 52.5 94.800781 53.601562 94.199219 54.5 C 93.601562 55.398438 92.699219 56.101562 91.300781 56.101562 C 89.699219 56.101562 89 55.199219 89 53.800781 C 89 52.699219 89.699219 49.601562 92.699219 49.601562 C 93.699219 49.601562 95 50.101562 95 51.800781 Z M 90.101562 54.300781 C 90.101562 55.199219 90.5 55.601562 91.199219 55.601562 C 93 55.601562 93.601562 52.101562 93.601562 51.300781 C 93.601562 50.601562 93.300781 50 92.601562 50 C 91 50 90.101562 53 90.101562 54.300781 Z M 90.101562 54.300781 "/>
<path style=" stroke:none;fill-rule:nonzero;fill:rgb(100%,100%,100%);fill-opacity:1;" d="M 104.101562 49.398438 C 104.300781 48.101562 103.800781 47.398438 102.601562 47.398438 C 101.5 47.398438 100.800781 48.101562 100.800781 49 C 100.800781 49.898438 101.699219 50.398438 102.5 50.800781 C 103.800781 51.5 104.398438 52.199219 104.398438 53.300781 C 104.398438 54.699219 103.699219 56.101562 101.199219 56.101562 C 100.300781 56.101562 99 55.699219 98.601562 55.101562 L 99 53.101562 L 99.398438 53.101562 C 99.300781 54.800781 100.300781 55.601562 101.601562 55.601562 C 102.898438 55.601562 103.601562 54.699219 103.601562 53.699219 C 103.601562 52.699219 102.898438 52.101562 102 51.601562 C 101 51.101562 100.101562 50.5 100.101562 49.300781 C 100.101562 48.300781 100.800781 46.800781 103 46.800781 C 103.699219 46.800781 104.800781 47 105.199219 47.5 L 104.699219 49.300781 Z M 104.101562 49.398438 "/>
<path style=" stroke:none;fill-rule:nonzero;fill:rgb(100%,100%,100%);fill-opacity:1;" d="M 111.699219 49.699219 L 110.398438 54.800781 C 110.300781 55.199219 110.300781 55.5 110.5 55.5 C 110.898438 55.5 111.398438 54.601562 111.601562 54.199219 L 111.898438 54.398438 C 111.398438 55.300781 110.800781 56.300781 109.699219 56.300781 C 109 56.300781 108.898438 55.699219 109.101562 54.898438 L 109.601562 53.398438 C 108.898438 54.699219 107.601562 56.300781 106.300781 56.300781 C 105.5 56.300781 105.101562 55.601562 105.101562 54.800781 C 105.101562 53.101562 106.601562 49.699219 109.601562 49.699219 C 110 49.699219 110.300781 49.800781 110.5 50 L 110.601562 49.800781 L 111.699219 49.800781 Z M 109.699219 50 C 107.699219 50 106.398438 53.199219 106.398438 54.601562 C 106.398438 55.101562 106.5 55.5 107 55.5 C 107.699219 55.5 108.398438 54.699219 109.101562 53.5 C 109.800781 52.5 110.199219 51.300781 110.5 50.300781 C 110.300781 50.199219 110.101562 50 109.699219 50 Z M 109.699219 50 "/>
<path style=" stroke:none;fill-rule:nonzero;fill:rgb(100%,100%,100%);fill-opacity:1;" d="M 112.800781 56.199219 L 114.101562 51 C 114.199219 50.601562 114.199219 50.398438 113.898438 50.300781 L 113.199219 50.199219 L 113.300781 49.898438 L 115.601562 49.5 L 115.699219 49.601562 L 114.898438 52.398438 C 115.601562 50.898438 117 49.601562 118.199219 49.601562 C 119.199219 49.601562 119.398438 50.398438 119.101562 51.5 L 118.101562 54.898438 C 118 55.300781 118 55.601562 118.199219 55.601562 C 118.601562 55.601562 119.101562 54.699219 119.300781 54.300781 L 119.601562 54.5 C 119.101562 55.398438 118.5 56.398438 117.5 56.398438 C 116.800781 56.398438 116.699219 55.800781 116.800781 55.199219 L 117.898438 51.5 C 118 51 117.898438 50.601562 117.5 50.601562 C 116.5 50.601562 115.300781 52.5 114.800781 53.601562 C 114.398438 54.300781 114.199219 55.101562 113.898438 56.398438 L 112.800781 56.398438 Z M 112.800781 56.199219 "/>
<path style=" stroke:none;fill-rule:nonzero;fill:rgb(100%,100%,100%);fill-opacity:1;" d="M 122.800781 56 L 122.898438 55.601562 L 123.601562 55.5 C 123.898438 55.5 124.101562 55.300781 124.199219 54.800781 L 125.699219 48.101562 C 125.800781 47.699219 125.699219 47.5 125.398438 47.398438 L 124.699219 47.300781 L 124.800781 46.898438 L 127.800781 46.898438 C 128.601562 46.898438 129.5 47 130 47.398438 C 130.699219 47.800781 131 48.398438 131 49.300781 C 131 50.199219 130.5 51.101562 129.699219 51.601562 C 129 52.101562 127.898438 52.199219 126.898438 52.199219 L 126 52.199219 L 125.398438 54.699219 C 125.300781 55.101562 125.398438 55.300781 125.699219 55.398438 L 126.5 55.5 L 126.398438 55.898438 Z M 126.199219 51.398438 C 126.101562 51.800781 126.101562 52 126.898438 52 C 128.601562 52 129.601562 51.199219 129.601562 49.300781 C 129.601562 48.199219 128.898438 47.601562 127.699219 47.601562 C 127 47.601562 127 47.699219 126.898438 48.101562 Z M 126.199219 51.398438 "/>
<path style=" stroke:none;fill-rule:nonzero;fill:rgb(100%,100%,100%);fill-opacity:1;" d="M 137.199219 49.699219 L 135.898438 54.800781 C 135.800781 55.199219 135.800781 55.5 136 55.5 C 136.398438 55.5 136.898438 54.601562 137.101562 54.199219 L 137.398438 54.398438 C 136.898438 55.300781 136.300781 56.300781 135.199219 56.300781 C 134.5 56.300781 134.398438 55.699219 134.601562 54.898438 L 135.101562 53.398438 C 134.398438 54.699219 133.101562 56.300781 131.800781 56.300781 C 131 56.300781 130.601562 55.601562 130.601562 54.800781 C 130.601562 53.101562 132.101562 49.699219 135.101562 49.699219 C 135.5 49.699219 135.800781 49.800781 136 50 L 136.101562 49.800781 L 137.199219 49.800781 Z M 135.199219 50 C 133.199219 50 131.898438 53.199219 131.898438 54.601562 C 131.898438 55.101562 132 55.5 132.5 55.5 C 133.199219 55.5 133.898438 54.699219 134.601562 53.5 C 135.300781 52.5 135.699219 51.300781 136 50.300781 C 135.699219 50.199219 135.398438 50 135.199219 50 Z M 135.199219 50 "/>
<path style=" stroke:none;fill-rule:nonzero;fill:rgb(100%,100%,100%);fill-opacity:1;" d="M 139.898438 52.199219 C 140.898438 50.398438 142.101562 49.601562 143.199219 49.601562 C 144.101562 49.601562 144.601562 50.300781 144.601562 51.199219 C 144.601562 51.800781 144.398438 52.898438 143.800781 54 C 143.101562 55.101562 142.101562 56.199219 140.601562 56.199219 C 139.898438 56.199219 139.199219 55.800781 139 55.300781 L 138.601562 56 L 138.101562 56 L 140 47.898438 C 140.101562 47.398438 140.101562 47.300781 139.699219 47.199219 L 139 47.101562 L 139.101562 46.800781 L 141.300781 46.5 L 141.398438 46.601562 Z M 142.601562 50.300781 C 141.898438 50.300781 140.800781 51.398438 140.300781 52.5 C 139.898438 53.199219 139.601562 54.101562 139.601562 54.699219 C 139.601562 55.300781 140 55.800781 140.601562 55.800781 C 142.5 55.800781 143.199219 52.300781 143.199219 51.398438 C 143.300781 50.5 143 50.300781 142.601562 50.300781 Z M 142.601562 50.300781 "/>
<path style=" stroke:none;fill-rule:nonzero;fill:rgb(100%,100%,100%);fill-opacity:1;" d="M 148.699219 46.5 L 146.699219 54.699219 C 146.601562 55.101562 146.601562 55.398438 146.800781 55.398438 C 147.101562 55.398438 147.601562 54.699219 148 54.101562 L 148.300781 54.300781 C 147.898438 55.199219 147.101562 56.199219 146.199219 56.199219 C 145.5 56.199219 145.398438 55.601562 145.5 55 L 147.300781 48 C 147.398438 47.5 147.398438 47.398438 147 47.300781 L 146.300781 47.199219 L 146.398438 46.898438 Z M 148.699219 46.5 "/>
<path style=" stroke:none;fill-rule:nonzero;fill:rgb(100%,100%,100%);fill-opacity:1;" d="M 155.101562 51.800781 C 155.101562 52.5 154.898438 53.601562 154.300781 54.5 C 153.699219 55.398438 152.800781 56.101562 151.398438 56.101562 C 149.800781 56.101562 149.101562 55.199219 149.101562 53.800781 C 149.101562 52.699219 149.800781 49.601562 152.800781 49.601562 C 153.898438 49.601562 155.101562 50.101562 155.101562 51.800781 Z M 150.300781 54.300781 C 150.300781 55.199219 150.699219 55.601562 151.398438 55.601562 C 153.199219 55.601562 153.800781 52.101562 153.800781 51.300781 C 153.800781 50.601562 153.5 50 152.800781 50 C 151.199219 50 150.300781 53 150.300781 54.300781 Z M 150.300781 54.300781 "/>
<path style=" stroke:none;fill-rule:nonzero;fill:rgb(100%,100%,100%);fill-opacity:1;" d="M 20.800781 47.398438 C 9.699219 47.5 0.800781 38.699219 0.699219 27.601562 C 0.699219 22.398438 2.898438 17.300781 6.601562 13.5 C 14.601562 5.699219 27.199219 5.800781 35.199219 13.601562 C 43 21.199219 43.101562 33.601562 35.5 41.300781 C 35.398438 41.398438 35.300781 41.5 35.101562 41.699219 C 31.199219 45.398438 26.101562 47.5 20.800781 47.398438 M 20.800781 8.398438 C 10.101562 8.300781 1.300781 16.898438 1.199219 27.699219 C 1.199219 32.898438 3.300781 37.699219 6.898438 41.300781 C 14.601562 48.800781 26.898438 48.800781 34.5 41.199219 C 42 33.898438 42.101562 21.800781 34.800781 14.300781 C 34.699219 14.199219 34.601562 14.101562 34.5 14 C 30.898438 10.398438 25.898438 8.398438 20.800781 8.398438 "/>
<path style=" stroke:none;fill-rule:nonzero;fill:rgb(100%,100%,100%);fill-opacity:1;" d="M 20.601562 47.800781 C 9.5 47.800781 0.398438 38.800781 0.300781 27.699219 C 0.300781 22.398438 2.5 17.199219 6.300781 13.5 C 14.398438 5.5 27.199219 5.5 35.300781 13.5 C 39.101562 17.199219 41.199219 22.199219 41.300781 27.601562 C 41.398438 32.898438 39.300781 37.898438 35.601562 41.699219 C 35.5 41.800781 35.398438 41.898438 35.199219 42.101562 C 31.398438 45.800781 26.199219 48 20.800781 47.898438 C 20.699219 47.800781 20.699219 47.800781 20.601562 47.800781 Z M 20.800781 47.199219 L 20.800781 47.699219 Z M 7.601562 42.199219 C 10.199219 44.5 13.5 46.101562 17.101562 46.898438 C 13.699219 46.199219 10.398438 44.601562 7.601562 42.199219 Z M 20.601562 8.800781 C 15.5 8.800781 10.898438 10.800781 7.199219 14.199219 C 3.5 17.800781 1.601562 22.5 1.5 27.699219 C 1.5 32.699219 3.601562 37.5 7.101562 41.101562 C 14.800781 48.5 26.699219 48.5 34.398438 41 C 38 37.5 39.898438 32.898438 40 27.898438 C 40.101562 22.898438 38.101562 18.199219 34.699219 14.601562 C 34.601562 14.5 34.5 14.398438 34.398438 14.300781 C 30.699219 10.699219 26 8.800781 20.898438 8.800781 C 20.898438 8.800781 20.898438 8.800781 20.800781 8.800781 L 20.800781 8.601562 L 20.800781 8.800781 C 20.699219 8.800781 20.699219 8.800781 20.601562 8.800781 Z M 40.601562 29 C 40.199219 33.699219 38.300781 38.101562 34.898438 41.398438 C 32.300781 44 29.101562 45.699219 25.800781 46.601562 C 29.199219 45.800781 32.300781 44 34.898438 41.5 C 35 41.398438 35.101562 41.300781 35.300781 41.101562 C 38.398438 37.898438 40.300781 33.601562 40.601562 29 Z M 5.199219 15.5 C 2.398438 19 0.898438 23.300781 0.898438 27.699219 C 0.898438 27.800781 0.898438 27.898438 0.898438 28 C 0.898438 27.898438 0.898438 27.800781 0.898438 27.699219 C 0.898438 23.199219 2.5 18.898438 5.199219 15.5 Z M 20.898438 8.101562 C 21.101562 8.101562 21.398438 8.101562 21.601562 8.101562 C 21.199219 8.101562 20.898438 8.101562 20.5 8.101562 C 20.5 8.101562 20.699219 8.101562 20.898438 8.101562 C 20.800781 8.101562 20.800781 8.101562 20.898438 8.101562 Z M 20.898438 8.101562 "/>
<path style=" stroke:none;fill-rule:nonzero;fill:rgb(100%,100%,100%);fill-opacity:1;" d="M 1.398438 23.5 C 0.699219 26.199219 0.699219 29.101562 1.398438 31.800781 L 16.601562 31.800781 L 16.601562 23.5 Z M 1.398438 23.5 "/>
<path style=" stroke:none;fill-rule:nonzero;fill:rgb(100%,100%,100%);fill-opacity:1;" d="M 40.699219 27.699219 C 40.699219 26.300781 40.5 24.898438 40.199219 23.5 L 25 23.5 L 25 31.800781 L 40.199219 31.800781 C 40.5 30.398438 40.699219 29 40.699219 27.699219 "/>
<path style=" stroke:none;fill-rule:nonzero;fill:rgb(100%,100%,100%);fill-opacity:1;" d="M 16.601562 46.699219 C 19.398438 47.300781 22.300781 47.300781 25.101562 46.699219 L 25.101562 31.800781 L 16.601562 31.800781 Z M 16.601562 46.699219 "/>
<path style=" stroke:none;fill-rule:nonzero;fill:rgb(100%,100%,100%);fill-opacity:1;" d="M 25 8.601562 C 22.199219 8 19.300781 8 16.601562 8.601562 L 16.601562 23.5 L 25 23.5 Z M 25 8.601562 "/>
<path style=" stroke:none;fill-rule:nonzero;fill:rgb(100%,100%,100%);fill-opacity:1;" d="M 52.5 72 L 52.5 71.699219 L 52.800781 71.699219 C 53.101562 71.699219 53.199219 71.601562 53.300781 71.300781 C 53.398438 71 53.5 70.601562 53.601562 70.101562 L 54.5 66.300781 C 54.601562 66 54.5 65.898438 54.300781 65.898438 L 53.800781 65.800781 L 53.898438 65.5 L 55.699219 65.5 C 55.898438 66.300781 56 67.101562 56.199219 68 L 56.699219 70.601562 L 58.300781 68.101562 C 58.898438 67.199219 59.398438 66.398438 59.898438 65.601562 L 61.699219 65.601562 L 61.601562 65.898438 L 61.101562 65.898438 C 60.898438 65.898438 60.800781 66 60.699219 66.398438 L 59.601562 71.300781 C 59.5 71.601562 59.601562 71.699219 59.800781 71.699219 L 60.300781 71.800781 L 60.5 72 L 58 72 L 58.101562 71.699219 L 58.601562 71.601562 C 58.800781 71.601562 58.898438 71.5 59 71.199219 L 60.101562 66.300781 L 56.5 71.800781 L 56.199219 71.800781 L 55 66.398438 L 54.101562 70.199219 C 54 70.601562 54 71 54 71.300781 C 54 71.601562 54.101562 71.699219 54.398438 71.699219 L 54.800781 71.699219 L 54.800781 72 Z M 52.5 72 "/>
<path style=" stroke:none;fill-rule:nonzero;fill:rgb(100%,100%,100%);fill-opacity:1;" d="M 65.699219 68.898438 C 65.699219 69.398438 65.5 70.199219 65.101562 70.898438 C 64.699219 71.601562 64 72.101562 63 72.101562 C 61.800781 72.101562 61.300781 71.398438 61.300781 70.398438 C 61.300781 69.601562 61.800781 67.300781 64 67.300781 C 64.800781 67.300781 65.699219 67.699219 65.699219 68.898438 Z M 62.199219 70.800781 C 62.199219 71.5 62.5 71.800781 63 71.800781 C 64.300781 71.800781 64.800781 69.300781 64.800781 68.699219 C 64.800781 68.101562 64.601562 67.699219 64 67.699219 C 62.800781 67.601562 62.199219 69.800781 62.199219 70.800781 Z M 62.199219 70.800781 "/>
<path style=" stroke:none;fill-rule:nonzero;fill:rgb(100%,100%,100%);fill-opacity:1;" d="M 66.398438 72.101562 L 67.398438 68.300781 C 67.5 68 67.5 67.898438 67.300781 67.898438 L 66.699219 67.898438 L 66.800781 67.699219 L 68.5 67.398438 L 67.898438 69.398438 C 68.5 68.300781 69.398438 67.300781 70.300781 67.300781 C 71.101562 67.300781 71.199219 67.898438 71 68.601562 L 70.300781 71 C 70.199219 71.300781 70.199219 71.5 70.398438 71.5 C 70.699219 71.5 71.101562 70.800781 71.199219 70.5 L 71.398438 70.601562 C 71.101562 71.300781 70.601562 71.898438 69.898438 71.898438 C 69.398438 71.898438 69.300781 71.5 69.398438 71 L 70.199219 68.300781 C 70.300781 67.898438 70.199219 67.601562 69.898438 67.601562 C 69.101562 67.601562 68.300781 69 67.898438 69.800781 C 67.699219 70.398438 67.5 70.898438 67.199219 71.800781 Z M 66.398438 72.101562 "/>
<path style=" stroke:none;fill-rule:nonzero;fill:rgb(100%,100%,100%);fill-opacity:1;" d="M 74.101562 67.800781 L 73.300781 71.199219 C 73.199219 71.398438 73.199219 71.601562 73.398438 71.601562 C 73.699219 71.601562 74.199219 71 74.398438 70.601562 L 74.601562 70.800781 C 74.199219 71.5 73.601562 72.101562 72.898438 72.101562 C 72.398438 72.101562 72.300781 71.699219 72.5 71.199219 L 73.300781 67.800781 L 72.5 67.800781 L 72.601562 67.398438 L 73.398438 67.398438 L 73.5 66.898438 L 74.398438 66.199219 L 74.5 66.300781 L 74.199219 67.398438 L 75.398438 67.398438 L 75.300781 67.800781 Z M 74.101562 67.800781 "/>
<path style=" stroke:none;fill-rule:nonzero;fill:rgb(100%,100%,100%);fill-opacity:1;" d="M 78.699219 70.800781 C 78.101562 71.800781 77.300781 72.101562 76.601562 72.101562 C 76.101562 72.101562 75.199219 71.898438 75.199219 70.601562 C 75.199219 69.800781 75.5 69 76 68.398438 C 76.5 67.800781 77.199219 67.300781 78 67.300781 C 78.800781 67.300781 79.199219 67.699219 79.199219 68.199219 C 79.199219 68.5 79.101562 68.800781 78.800781 69.101562 C 78.398438 69.5 77.699219 69.800781 76.199219 70.199219 C 76.199219 70.300781 76.199219 70.300781 76.199219 70.300781 C 76.199219 71 76.398438 71.601562 77 71.601562 C 77.699219 71.601562 78.199219 71 78.5 70.5 Z M 78.199219 68.199219 C 78.199219 67.898438 78 67.699219 77.699219 67.699219 C 77 67.699219 76.300781 68.800781 76.101562 69.898438 C 77.699219 69.5 78.199219 68.800781 78.199219 68.199219 Z M 78.199219 68.199219 "/>
<path style=" stroke:none;fill-rule:nonzero;fill:rgb(100%,100%,100%);fill-opacity:1;" d="M 79.101562 74.199219 L 80.398438 68.300781 C 80.5 68 80.5 67.898438 80.300781 67.898438 L 79.699219 67.898438 L 79.800781 67.699219 L 81.5 67.398438 L 81 69.398438 C 81.699219 68.101562 82.601562 67.398438 83.300781 67.398438 C 84 67.398438 84.300781 67.800781 84.300781 68.601562 C 84.300781 69.300781 83.699219 72.101562 81.398438 72.101562 C 80.898438 72.101562 80.601562 72 80.398438 71.898438 L 80 74.101562 Z M 83.5 68.601562 C 83.5 68.101562 83.300781 67.800781 83 67.800781 C 82.5 67.800781 81.800781 68.5 81.300781 69.300781 C 80.898438 69.898438 80.699219 70.898438 80.601562 71.5 C 80.800781 71.699219 81.101562 71.800781 81.398438 71.800781 C 82.898438 71.800781 83.5 69.300781 83.5 68.601562 Z M 83.5 68.601562 "/>
<path style=" stroke:none;fill-rule:nonzero;fill:rgb(100%,100%,100%);fill-opacity:1;" d="M 85.101562 72.101562 L 86 68.300781 C 86.101562 68 86.101562 67.898438 85.898438 67.898438 L 85.300781 67.898438 L 85.398438 67.699219 L 87 67.398438 L 86.601562 68.898438 C 87.101562 67.898438 87.699219 67.300781 88.300781 67.300781 C 88.601562 67.300781 88.699219 67.5 88.699219 67.699219 C 88.699219 68 88.5 68.300781 88.300781 68.300781 C 88 68.300781 87.898438 68.101562 87.699219 68.101562 C 87.300781 68.101562 86.898438 68.898438 86.5 70.101562 C 86.398438 70.601562 86.199219 71.398438 86 72 Z M 85.101562 72.101562 "/>
<path style=" stroke:none;fill-rule:nonzero;fill:rgb(100%,100%,100%);fill-opacity:1;" d="M 90.699219 67.300781 L 89.699219 71.101562 C 89.601562 71.398438 89.601562 71.601562 89.800781 71.601562 C 90.101562 71.601562 90.5 70.898438 90.601562 70.601562 L 90.800781 70.699219 C 90.5 71.398438 90 72 89.300781 72 C 88.800781 72 88.699219 71.601562 88.800781 71.101562 L 89.601562 68.199219 C 89.699219 67.898438 89.699219 67.800781 89.398438 67.800781 L 88.898438 67.800781 L 89 67.601562 Z M 89.601562 66.800781 L 90.699219 65.699219 C 91 65.398438 91.101562 65.300781 91.300781 65.300781 C 91.398438 65.300781 91.699219 65.5 91.699219 65.699219 C 91.699219 65.898438 91.5 66.101562 91.199219 66.199219 L 89.699219 67 Z M 89.601562 66.800781 "/>
<path style=" stroke:none;fill-rule:nonzero;fill:rgb(100%,100%,100%);fill-opacity:1;" d="M 91.699219 72.101562 L 92.699219 68.300781 C 92.800781 68 92.800781 67.898438 92.601562 67.898438 L 92 67.898438 L 92.101562 67.699219 L 93.800781 67.398438 L 93.199219 69.398438 C 93.800781 68.300781 94.699219 67.300781 95.601562 67.300781 C 96.398438 67.300781 96.5 67.898438 96.300781 68.601562 L 95.601562 71 C 95.5 71.300781 95.5 71.5 95.699219 71.5 C 96 71.5 96.398438 70.800781 96.5 70.5 L 96.699219 70.601562 C 96.398438 71.300781 95.898438 71.898438 95.199219 71.898438 C 94.699219 71.898438 94.601562 71.5 94.699219 71 L 95.5 68.300781 C 95.601562 67.898438 95.5 67.601562 95.199219 67.601562 C 94.398438 67.601562 93.601562 69 93.199219 69.800781 C 93 70.398438 92.800781 70.898438 92.5 71.800781 Z M 91.699219 72.101562 "/>
<path style=" stroke:none;fill-rule:nonzero;fill:rgb(100%,100%,100%);fill-opacity:1;" d="M 100.699219 70.699219 C 100.101562 71.800781 99.300781 72.101562 98.601562 72.101562 C 98 72.101562 97.300781 71.699219 97.300781 70.601562 C 97.300781 69.101562 98.300781 67.300781 100 67.300781 C 100.699219 67.300781 101.199219 67.699219 101.199219 68.101562 C 101.199219 68.398438 100.800781 68.601562 100.601562 68.601562 C 100.398438 68.601562 100.300781 68.5 100.300781 68.300781 C 100.199219 67.699219 100 67.601562 99.699219 67.601562 C 98.800781 67.601562 98.199219 69.199219 98.199219 70.398438 C 98.199219 71.101562 98.300781 71.601562 99 71.601562 C 99.601562 71.601562 100.199219 70.898438 100.5 70.5 Z M 100.699219 70.699219 "/>
<path style=" stroke:none;fill-rule:nonzero;fill:rgb(100%,100%,100%);fill-opacity:1;" d="M 103.5 67.300781 L 102.5 71.101562 C 102.398438 71.398438 102.398438 71.601562 102.601562 71.601562 C 102.898438 71.601562 103.300781 70.898438 103.398438 70.601562 L 103.601562 70.699219 C 103.300781 71.398438 102.800781 72 102.101562 72 C 101.601562 72 101.5 71.601562 101.601562 71.101562 L 102.398438 68.199219 C 102.5 67.898438 102.5 67.800781 102.199219 67.800781 L 101.699219 67.800781 L 101.800781 67.601562 Z M 104 65.898438 C 104 66.300781 103.800781 66.5 103.398438 66.5 C 103.101562 66.5 102.898438 66.300781 102.898438 66 C 102.898438 65.699219 103.101562 65.398438 103.5 65.398438 C 103.699219 65.300781 104 65.5 104 65.898438 Z M 104 65.898438 "/>
<path style=" stroke:none;fill-rule:nonzero;fill:rgb(100%,100%,100%);fill-opacity:1;" d="M 104.101562 74.199219 L 105.398438 68.300781 C 105.5 68 105.5 67.898438 105.300781 67.898438 L 104.699219 67.898438 L 104.800781 67.699219 L 106.5 67.398438 L 106 69.398438 C 106.699219 68.101562 107.601562 67.398438 108.300781 67.398438 C 109 67.398438 109.300781 67.800781 109.300781 68.601562 C 109.300781 69.300781 108.699219 72.101562 106.398438 72.101562 C 105.898438 72.101562 105.601562 72 105.398438 71.898438 L 104.898438 74.101562 Z M 108.398438 68.601562 C 108.398438 68.101562 108.199219 67.800781 107.898438 67.800781 C 107.398438 67.800781 106.699219 68.5 106.199219 69.300781 C 105.800781 69.898438 105.601562 70.898438 105.5 71.5 C 105.699219 71.699219 106 71.800781 106.300781 71.800781 C 107.800781 71.800781 108.398438 69.300781 108.398438 68.601562 Z M 108.398438 68.601562 "/>
<path style=" stroke:none;fill-rule:nonzero;fill:rgb(100%,100%,100%);fill-opacity:1;" d="M 113.300781 70.800781 C 112.699219 71.800781 111.898438 72.101562 111.199219 72.101562 C 110.699219 72.101562 109.800781 71.898438 109.800781 70.601562 C 109.800781 69.800781 110.101562 69 110.601562 68.398438 C 111.101562 67.800781 111.800781 67.300781 112.601562 67.300781 C 113.398438 67.300781 113.800781 67.699219 113.800781 68.199219 C 113.800781 68.5 113.699219 68.800781 113.398438 69.101562 C 113 69.5 112.300781 69.800781 110.800781 70.199219 C 110.800781 70.300781 110.800781 70.300781 110.800781 70.300781 C 110.800781 71 111 71.601562 111.601562 71.601562 C 112.300781 71.601562 112.800781 71 113.101562 70.5 Z M 112.800781 68.199219 C 112.800781 67.898438 112.601562 67.699219 112.300781 67.699219 C 111.601562 67.699219 110.898438 68.800781 110.699219 69.898438 C 112.300781 69.5 112.800781 68.800781 112.800781 68.199219 Z M 112.800781 68.199219 "/>
</g>
</svg>
