<svg id="LOGO_CEU" data-name="LOGO CEU" xmlns="http://www.w3.org/2000/svg" xmlns:xlink="http://www.w3.org/1999/xlink" width="225.492" height="93.964" viewBox="0 0 225.492 93.964">
  <defs>
    <clipPath id="clip-path">
      <rect id="Rectángulo_323" data-name="Rectángulo 323" width="225.492" height="93.964" fill="none"/>
    </clipPath>
  </defs>
  <g id="Grupo_390" data-name="Grupo 390" clip-path="url(#clip-path)">
    <line id="Línea_229" data-name="Línea 229" x2="148.768" transform="translate(76.725 76.792)" fill="none" stroke="#6a6755" stroke-width="2.795"/>
    <path id="Trazado_1125" data-name="Trazado 1125" d="M59.609,28.87c0,15.939-13.344,28.869-29.8,28.869S0,44.809,0,28.87,13.342,0,29.807,0s29.8,12.932,29.8,28.87" fill="#cec100"/>
    <path id="Trazado_1126" data-name="Trazado 1126" d="M0,73.326a27.521,27.521,0,0,0,.686,6.158H58.92a27.895,27.895,0,0,0,0-12.321H.686A27.522,27.522,0,0,0,0,73.326" transform="translate(0 -44.456)" fill="#d80012"/>
    <path id="Trazado_1127" data-name="Trazado 1127" d="M67.152,57.075a30.787,30.787,0,0,0,12.722,0V.663a30.909,30.909,0,0,0-12.722,0Z" transform="translate(-43.71 -0.001)" fill="#008dd3"/>
    <rect id="Rectángulo_322" data-name="Rectángulo 322" width="12.722" height="12.32" transform="translate(23.442 22.708)" fill="#9a3677"/>
    <path id="Trazado_1128" data-name="Trazado 1128" d="M237.341,56.145h-1.16c-.734-4.408-3.474-5.976-7.41-5.976-7.178-.035-9.684,6.131-9.684,12.26,0,4.523,1.66,12.106,9.611,12.106,5.049,0,7.025-2.839,8.1-6.73h1.156l-.546,6.247a20.887,20.887,0,0,1-8.487,1.792c-4.324,0-8.1-.859-10.493-3.176-2.319-2.248-3.671-5.755-3.671-10.124a13.942,13.942,0,0,1,3.514-9.83c2.317-2.508,6.132-3.855,10.885-3.855a20.907,20.907,0,0,1,8.18,1.46Z" transform="translate(-139.792 -32.34)" fill="#6a6755"/>
    <path id="Trazado_1129" data-name="Trazado 1129" d="M310.647,50.528v6.125h-1.159c-.537-3.888-1.425-4.822-5.825-4.822h-3.785c-1.235,0-1.429.148-1.429,1.345v9.047h5.405c3.277,0,3.435-.9,3.78-3.212H308.8v7.884h-1.163c-.345-2.355-.5-3.246-3.78-3.246h-5.405V71.9c0,1.833.158,2.463.965,2.8a13.438,13.438,0,0,0,4.017.372c4.861,0,6.6-.6,7.486-5.157h1.159l-.471,6.466h-20.45V75.305c3.4-.226,3.476-.3,3.476-2.392V54c0-2.1-.079-2.171-3.476-2.4V50.528Z" transform="translate(-189.518 -33.445)" fill="#6a6755"/>
    <path id="Trazado_1130" data-name="Trazado 1130" d="M385.79,50.528v1.079c-3.356.224-3.474.3-3.474,2.4V66.858a12.854,12.854,0,0,1-1.039,5.528c-1.777,3.7-5.831,4.563-9.646,4.563-3.785,0-7.838-.9-9.611-4.563a13.156,13.156,0,0,1-1.044-5.454V54c0-2.1-.08-2.171-3.468-2.4V50.528h10.767v1.079c-3.367.224-3.482.3-3.482,2.4V66.111c0,3.554.587,5.793,1.743,7.288a6.952,6.952,0,0,0,10.227,0c1.151-1.5,1.736-3.734,1.736-7.288V54c0-2.1-.08-2.171-3.476-2.4V50.528Z" transform="translate(-232.707 -33.445)" fill="#6a6755"/>
    <path id="Trazado_1131" data-name="Trazado 1131" d="M233.953,174.095l-.911,2.863a8.472,8.472,0,0,1-3.775.756c-4.611,0-5.82-2.845-5.82-5.222a8.307,8.307,0,0,1,1.264-4.5,7.349,7.349,0,0,1,6.6-3.277,8.77,8.77,0,0,1,4.109.954l-.67,2.7h-.558c.093-1.963-.707-3.026-3.031-3.026a5.014,5.014,0,0,0-4.388,2.557,10.218,10.218,0,0,0-1.339,5.061c0,2.773,1.543,4.124,3.7,4.124,2.287,0,3.235-1.189,4.258-2.989Z" transform="translate(-145.445 -109.024)" fill="#6a6755"/>
    <path id="Trazado_1132" data-name="Trazado 1132" d="M265.853,178.783a7.355,7.355,0,0,1-1.172,3.8,4.755,4.755,0,0,1-4.2,2.305c-2.343,0-3.421-1.333-3.421-3.26,0-1.549,1.06-6,5.467-6,1.506,0,3.328.667,3.328,3.152m-6.991,3.566c0,1.278.6,1.909,1.674,1.909,2.548,0,3.514-4.827,3.514-6.1,0-1.117-.409-1.891-1.543-1.891-2.454,0-3.644,4.142-3.644,6.087" transform="translate(-167.323 -116.252)" fill="#6a6755"/>
    <path id="Trazado_1133" data-name="Trazado 1133" d="M291.735,162.848l.093.09-2.994,11.58c-.149.594-.149.972.186.972.446,0,1.283-1.1,1.711-1.909l.446.252c-.6,1.351-1.729,2.593-3.031,2.593-1,0-1.227-.738-.967-1.765l2.548-9.959c.186-.7.093-.828-.372-.882l-1.059-.126.111-.414Z" transform="translate(-186.865 -107.791)" fill="#6a6755"/>
    <path id="Trazado_1134" data-name="Trazado 1134" d="M308.777,182.313a4.939,4.939,0,0,1-4.258,2.575c-1.078,0-2.771-.432-2.771-2.954a6.728,6.728,0,0,1,1.543-4.25,5.26,5.26,0,0,1,4.072-2.053c1.525,0,2.306.847,2.306,1.8a2.272,2.272,0,0,1-.781,1.729c-.8.72-2.157,1.441-5.281,2.053a1.7,1.7,0,0,0-.019.288c0,1.423.39,2.5,1.692,2.5,1.395,0,2.4-1.207,3.068-2.053Zm-.855-4.989a1.014,1.014,0,0,0-1.079-1.063c-1.487,0-2.882,2.161-3.2,4.34,3.142-.648,4.277-2.017,4.277-3.277" transform="translate(-196.413 -116.252)" fill="#6a6755"/>
    <path id="Trazado_1135" data-name="Trazado 1135" d="M333.85,175.1l.111.162-.614,1.135-1.562.216a2.036,2.036,0,0,1,.391,1.242c0,1.855-1.432,3.224-4.017,3.224a6.854,6.854,0,0,1-1-.054c-.446.109-.818.36-.818.7,0,.5.688.756,2.25,1.116,2.194.5,3.254,1.477,3.254,2.827,0,1.981-2.027,3.008-4.537,3.008-2.362,0-4.091-1.026-4.091-2.629,0-1.495,1.6-2.251,2.864-2.467v-.036c-.762-.342-1.32-.756-1.32-1.351,0-.72,1.116-1.117,1.692-1.351v-.036a2.364,2.364,0,0,1-1.562-2.215c0-1.279.911-3.314,3.961-3.314a4.742,4.742,0,0,1,2.306.541Zm-3.589,10.913c0-1.513-2.194-1.981-3.366-2.143a2.175,2.175,0,0,0-1.971,2.017c0,1.3,1.171,2.161,2.789,2.161,1.395,0,2.547-.666,2.547-2.035m-3.626-7.113a1.445,1.445,0,0,0,1.543,1.549c1.395,0,2.287-1.351,2.287-3.026a1.4,1.4,0,0,0-1.487-1.513c-1.767,0-2.343,1.855-2.343,2.989" transform="translate(-210.386 -115.9)" fill="#6a6755"/>
    <path id="Trazado_1136" data-name="Trazado 1136" d="M357.995,168.121l.093.09-2.026,7.24c-.168.576-.186.99.186.99.52,0,1.339-1.278,1.673-1.909l.446.252c-.632,1.369-1.673,2.593-3.012,2.593-1,0-1.246-.739-.967-1.765l1.561-5.637c.168-.63.112-.792-.39-.828l-1.06-.09.111-.432Zm.911-2.845a1.128,1.128,0,0,1-1.19,1.207.956.956,0,0,1-1.023-1.009,1.165,1.165,0,0,1,1.209-1.189.926.926,0,0,1,1,.991" transform="translate(-230.607 -108.742)" fill="#6a6755"/>
    <path id="Trazado_1137" data-name="Trazado 1137" d="M378.35,178.783a7.358,7.358,0,0,1-1.172,3.8,4.755,4.755,0,0,1-4.2,2.305c-2.343,0-3.421-1.333-3.421-3.26,0-1.549,1.06-6,5.467-6,1.506,0,3.329.667,3.329,3.152m-6.991,3.566c0,1.278.595,1.909,1.673,1.909,2.548,0,3.514-4.827,3.514-6.1,0-1.117-.409-1.891-1.543-1.891-2.454,0-3.644,4.142-3.644,6.087" transform="translate(-240.55 -116.252)" fill="#6a6755"/>
    <path id="Trazado_1138" data-name="Trazado 1138" d="M417.581,168.152c.223-1.855-.465-2.81-2.25-2.81a2.329,2.329,0,0,0-2.585,2.287c0,1.369,1.32,1.981,2.4,2.521,1.878.937,2.789,1.963,2.789,3.584,0,1.927-1.1,3.944-4.7,3.98a5.434,5.434,0,0,1-3.886-1.477l.483-2.755h.539c-.111,2.4,1.376,3.6,3.087,3.6a2.624,2.624,0,0,0,2.808-2.611c0-1.441-.893-2.2-2.38-2.917-1.506-.7-2.7-1.585-2.7-3.277,0-1.513,1.023-3.566,4.277-3.566a5.926,5.926,0,0,1,3.328.919l-.67,2.521Z" transform="translate(-266.449 -109.024)" fill="#6a6755"/>
    <path id="Trazado_1139" data-name="Trazado 1139" d="M447.132,175.775l-1.971,7.185c-.168.577-.186.991.186.991.52,0,1.339-1.278,1.674-1.909l.446.252c-.632,1.369-1.673,2.593-3.086,2.593-1,0-1.209-.739-.818-2.017l.632-2.053h-.037c-1.078,1.837-2.808,4.07-4.8,4.07-1.264,0-1.786-1.063-1.786-2.143,0-2.377,2.12-7.114,6.545-7.114a2.6,2.6,0,0,1,1.358.378l.093-.234Zm-2.975.487c-2.919,0-4.742,4.448-4.742,6.429,0,.7.2,1.26.818,1.26.892,0,2.027-1.206,3.068-2.738a14.944,14.944,0,0,0,1.989-4.556,1.692,1.692,0,0,0-1.134-.4" transform="translate(-284.824 -116.252)" fill="#6a6755"/>
    <path id="Trazado_1140" data-name="Trazado 1140" d="M469.162,184.888l1.952-7.366c.167-.576.167-.828-.279-.864l-1.153-.09.112-.432,3.4-.5.093.09-1.208,3.926h.055c1.116-2.107,3.05-4.016,4.835-4.016,1.525,0,1.748,1.189,1.32,2.611l-1.45,4.718c-.167.576-.186.99.186.99.521,0,1.339-1.278,1.674-1.909l.446.252c-.632,1.369-1.673,2.593-3.068,2.593-1,0-1.246-.756-.948-1.765l1.6-5.277c.2-.7.037-1.278-.614-1.278-1.506,0-3.292,2.629-3.98,4.178a31.518,31.518,0,0,0-1.339,3.926Z" transform="translate(-305.386 -116.252)" fill="#6a6755"/>
    <path id="Trazado_1141" data-name="Trazado 1141" d="M510.986,177.973l.111-.522,1.023-.108c.446-.036.632-.252.781-.864l2.231-9.473c.149-.594.018-.846-.409-.882l-1.1-.09.13-.522h4.351a6.96,6.96,0,0,1,3.292.648,2.932,2.932,0,0,1,1.506,2.665,3.736,3.736,0,0,1-1.878,3.26,8.3,8.3,0,0,1-4.128.846h-1.376l-.837,3.548c-.13.576-.037.828.409.864l1.283.108-.111.522Zm4.853-6.429c-.13.576-.167.756,1.116.756,2.51,0,4-1.225,4-3.8,0-1.531-.948-2.359-2.789-2.359-.948,0-1.078.162-1.19.631Z" transform="translate(-332.609 -109.553)" fill="#6a6755"/>
    <path id="Trazado_1142" data-name="Trazado 1142" d="M553.347,175.775l-1.971,7.185c-.167.577-.186.991.186.991.52,0,1.339-1.278,1.673-1.909l.446.252c-.633,1.369-1.674,2.593-3.087,2.593-1,0-1.208-.739-.818-2.017l.632-2.053h-.037c-1.079,1.837-2.808,4.07-4.8,4.07-1.264,0-1.785-1.063-1.785-2.143,0-2.377,2.12-7.114,6.545-7.114a2.6,2.6,0,0,1,1.357.378l.093-.234Zm-2.975.487c-2.919,0-4.742,4.448-4.742,6.429,0,.7.2,1.26.818,1.26.892,0,2.026-1.206,3.068-2.738a14.953,14.953,0,0,0,1.989-4.556,1.692,1.692,0,0,0-1.134-.4" transform="translate(-353.962 -116.252)" fill="#6a6755"/>
    <path id="Trazado_1143" data-name="Trazado 1143" d="M577.293,170.88h.037c1.432-2.467,3.273-3.71,4.685-3.71,1.376,0,1.99.937,1.99,2.269a8.657,8.657,0,0,1-1.227,4,5.453,5.453,0,0,1-4.667,2.989,2.514,2.514,0,0,1-2.343-1.261l-.576,1.045h-.669l2.733-11.508c.167-.7.093-.829-.372-.883l-1.06-.126.112-.414,3.328-.432.093.09Zm3.886-2.773c-1.153,0-2.548,1.549-3.384,2.989a7.121,7.121,0,0,0-.986,3.152,1.449,1.449,0,0,0,1.525,1.548c2.733,0,3.849-4.9,3.849-6.195,0-1.026-.316-1.495-1-1.495" transform="translate(-373.967 -107.791)" fill="#6a6755"/>
    <path id="Trazado_1144" data-name="Trazado 1144" d="M610.479,162.848l.093.09-2.994,11.58c-.148.594-.148.972.186.972.446,0,1.283-1.1,1.711-1.909l.446.252c-.6,1.351-1.729,2.593-3.031,2.593-1,0-1.227-.738-.967-1.765l2.547-9.959c.186-.7.093-.828-.372-.882l-1.06-.126.112-.414Z" transform="translate(-394.341 -107.791)" fill="#6a6755"/>
    <path id="Trazado_1145" data-name="Trazado 1145" d="M629.5,178.783a7.358,7.358,0,0,1-1.172,3.8,4.755,4.755,0,0,1-4.2,2.305c-2.343,0-3.421-1.333-3.421-3.26,0-1.549,1.06-6,5.467-6,1.506,0,3.329.667,3.329,3.152m-6.991,3.566c0,1.278.595,1.909,1.674,1.909,2.547,0,3.514-4.827,3.514-6.1,0-1.117-.409-1.891-1.543-1.891-2.454,0-3.644,4.142-3.644,6.087" transform="translate(-404.027 -116.252)" fill="#6a6755"/>
    <path id="Trazado_1146" data-name="Trazado 1146" d="M218.572,250.887l.067-.379.418-.039a.8.8,0,0,0,.8-.561,12.77,12.77,0,0,0,.472-1.62l1.268-5.353c.108-.431.013-.6-.3-.627l-.8-.078.094-.379h2.616c.229,1.162.5,2.311.768,3.487l.755,3.617h.04l2.387-3.526c.822-1.214,1.618-2.39,2.332-3.578h2.643l-.094.379-.741.052c-.337.026-.458.209-.566.653l-1.618,6.868c-.094.418-.027.6.3.627l.8.078-.081.379H226.46l.081-.379.741-.078c.324-.026.458-.183.566-.627l1.658-6.829h-.04l-5.245,7.756h-.378l-1.618-7.756H222.2l-1.241,5.314a11.949,11.949,0,0,0-.283,1.62c-.04.4.189.522.62.561l.526.039-.068.379Z" transform="translate(-142.272 -160.083)" fill="#6a6755"/>
    <path id="Trazado_1147" data-name="Trazado 1147" d="M261.575,251.475a5.334,5.334,0,0,1-.85,2.755,3.448,3.448,0,0,1-3.047,1.672,2.2,2.2,0,0,1-2.481-2.364c0-1.123.768-4.348,3.964-4.348a2.163,2.163,0,0,1,2.414,2.285m-5.07,2.585c0,.927.431,1.384,1.214,1.384,1.847,0,2.548-3.5,2.548-4.427,0-.81-.3-1.371-1.119-1.371-1.78,0-2.643,3-2.643,4.414" transform="translate(-166.113 -164.941)" fill="#6a6755"/>
    <path id="Trazado_1148" data-name="Trazado 1148" d="M276.478,255.9l1.416-5.341c.121-.418.121-.6-.2-.626l-.836-.066.081-.313,2.467-.366.068.065-.877,2.847h.04c.809-1.528,2.211-2.912,3.506-2.912,1.106,0,1.268.862.957,1.893l-1.051,3.421c-.121.418-.135.718.135.718.377,0,.971-.927,1.213-1.384l.324.183a2.739,2.739,0,0,1-2.225,1.88c-.728,0-.9-.549-.688-1.28l1.16-3.827c.148-.509.027-.927-.445-.927-1.092,0-2.386,1.907-2.885,3.03a22.827,22.827,0,0,0-.971,2.847Z" transform="translate(-179.964 -164.94)" fill="#6a6755"/>
    <path id="Trazado_1149" data-name="Trazado 1149" d="M303.639,246.927l-1.2,4.754c-.081.326-.081.626.2.626.418,0,1.106-.875,1.416-1.384l.3.222a3.077,3.077,0,0,1-2.481,1.841c-.674,0-.836-.536-.634-1.28l1.213-4.78h-1.119l.148-.5h1.092l.175-.64,1.308-1.005.162.092-.458,1.554h1.712l-.148.5Z" transform="translate(-196.029 -162.026)" fill="#6a6755"/>
    <path id="Trazado_1150" data-name="Trazado 1150" d="M317.919,254.033a3.582,3.582,0,0,1-3.087,1.868,1.878,1.878,0,0,1-2.009-2.142,4.881,4.881,0,0,1,1.119-3.082,3.814,3.814,0,0,1,2.953-1.488c1.106,0,1.672.614,1.672,1.306a1.648,1.648,0,0,1-.566,1.253c-.58.522-1.564,1.045-3.829,1.489a1.253,1.253,0,0,0-.013.209c0,1.032.283,1.815,1.227,1.815a3.126,3.126,0,0,0,2.225-1.489Zm-.62-3.617a.735.735,0,0,0-.782-.77c-1.079,0-2.09,1.567-2.319,3.147,2.278-.47,3.1-1.463,3.1-2.377" transform="translate(-203.622 -164.94)" fill="#6a6755"/>
    <path id="Trazado_1151" data-name="Trazado 1151" d="M329.431,258.9l1.887-8.344c.094-.392.121-.6-.2-.627l-.836-.065.081-.313,2.44-.365.068.065-.769,2.755h.04c1.025-1.867,2.359-2.82,3.4-2.82,1,0,1.5.614,1.5,1.75,0,.992-.9,4.963-4.206,4.963a2.9,2.9,0,0,1-1.456-.288l-.741,3.134Zm6.27-7.952c0-.692-.243-1.084-.728-1.084-.769,0-1.753,1.045-2.4,2.141a11.393,11.393,0,0,0-1.065,3.043,1.741,1.741,0,0,0,1.187.392c2.211,0,3.007-3.46,3.007-4.492" transform="translate(-214.432 -164.94)" fill="#6a6755"/>
    <path id="Trazado_1152" data-name="Trazado 1152" d="M354.034,255.9l1.241-5.341c.094-.418.121-.6-.2-.626l-.836-.066.081-.313,2.319-.366.067.065-.607,2.168h.027c.728-1.411,1.658-2.233,2.413-2.233.432,0,.62.222.607.575,0,.379-.3.809-.634.809-.431,0-.526-.327-.944-.327-.512,0-1.186,1.123-1.672,2.834-.216.757-.472,1.815-.7,2.664Z" transform="translate(-230.447 -164.94)" fill="#6a6755"/>
    <path id="Trazado_1153" data-name="Trazado 1153" d="M372.649,243.539l.067.065-1.47,5.25c-.121.418-.135.718.135.718.378,0,.971-.927,1.214-1.384l.323.183c-.458.993-1.213,1.881-2.184,1.881-.728,0-.9-.536-.7-1.28l1.132-4.088c.121-.457.081-.574-.283-.6l-.769-.066.081-.313Zm-1.632-.784,1.6-1.567c.4-.4.634-.535.863-.535a.665.665,0,0,1,.526.561c0,.275-.35.5-.755.705l-2.036,1.1Z" transform="translate(-240.81 -159.29)" fill="#6a6755"/>
    <path id="Trazado_1154" data-name="Trazado 1154" d="M381.572,255.9l1.416-5.341c.121-.418.121-.6-.2-.626l-.836-.066.081-.313,2.467-.366.067.065-.876,2.847h.04c.809-1.528,2.211-2.912,3.505-2.912,1.106,0,1.267.862.957,1.893L387.14,254.5c-.121.418-.135.718.135.718.377,0,.971-.927,1.213-1.384l.324.183a2.739,2.739,0,0,1-2.225,1.88c-.728,0-.9-.549-.688-1.28l1.16-3.827c.148-.509.027-.927-.445-.927-1.092,0-2.387,1.907-2.885,3.03a22.864,22.864,0,0,0-.971,2.847Z" transform="translate(-248.372 -164.94)" fill="#6a6755"/>
    <path id="Trazado_1155" data-name="Trazado 1155" d="M409.787,253.981a3.523,3.523,0,0,1-3.074,1.92,1.832,1.832,0,0,1-1.928-2.09c0-2.141,1.51-4.622,3.91-4.622,1.011,0,1.739.5,1.739,1.162,0,.431-.539.731-.863.731-.243,0-.364-.157-.391-.392-.081-.784-.377-1.045-.809-1.045-1.24,0-2.252,2.207-2.252,3.9,0,.927.2,1.711,1.187,1.711.9,0,1.7-.927,2.157-1.528Z" transform="translate(-263.481 -164.94)" fill="#6a6755"/>
    <path id="Trazado_1156" data-name="Trazado 1156" d="M425.793,243.744l.067.065-1.47,5.25c-.121.418-.135.718.135.718.378,0,.971-.927,1.213-1.384l.324.183c-.459.992-1.214,1.88-2.185,1.88-.728,0-.9-.536-.7-1.28l1.132-4.088c.122-.457.081-.574-.283-.6l-.769-.066.081-.313Zm.661-2.064a.818.818,0,0,1-.864.875.693.693,0,0,1-.741-.731.845.845,0,0,1,.877-.862.672.672,0,0,1,.729.718" transform="translate(-275.403 -159.495)" fill="#6a6755"/>
    <path id="Trazado_1157" data-name="Trazado 1157" d="M433.133,258.9l1.888-8.344c.095-.392.121-.6-.2-.627l-.836-.065.081-.313,2.44-.365.068.065-.769,2.755h.041c1.025-1.867,2.359-2.82,3.4-2.82,1,0,1.5.614,1.5,1.75,0,.992-.9,4.963-4.207,4.963a2.905,2.905,0,0,1-1.456-.288l-.741,3.134Zm6.27-7.952c0-.692-.243-1.084-.728-1.084-.768,0-1.753,1.045-2.4,2.141a11.4,11.4,0,0,0-1.065,3.043,1.741,1.741,0,0,0,1.187.392c2.211,0,3.007-3.46,3.007-4.492" transform="translate(-281.934 -164.94)" fill="#6a6755"/>
    <path id="Trazado_1158" data-name="Trazado 1158" d="M461.906,254.033a3.582,3.582,0,0,1-3.087,1.868,1.878,1.878,0,0,1-2.009-2.142,4.88,4.88,0,0,1,1.119-3.082,3.814,3.814,0,0,1,2.953-1.488c1.106,0,1.672.614,1.672,1.306a1.648,1.648,0,0,1-.566,1.253c-.58.522-1.564,1.045-3.829,1.489a1.22,1.22,0,0,0-.014.209c0,1.032.283,1.815,1.227,1.815a3.126,3.126,0,0,0,2.225-1.489Zm-.62-3.617a.734.734,0,0,0-.782-.77c-1.079,0-2.09,1.567-2.319,3.147,2.279-.47,3.1-1.463,3.1-2.377" transform="translate(-297.345 -164.94)" fill="#6a6755"/>
  </g>
</svg>
